<svg width="26" height="25" viewBox="0 0 26 25" fill="none" xmlns="http://www.w3.org/2000/svg">
<path fill-rule="evenodd" clip-rule="evenodd" d="M0.423068 14.5781C-0.141023 14.0156 -0.141023 13.1037 0.423068 12.5412L13 -5.68248e-07L25.5769 12.5412C26.141 13.1037 26.141 14.0156 25.5769 14.5781C25.0128 15.1406 24.0983 15.1406 23.5342 14.5781L13 4.07389L2.46582 14.5781C1.90173 15.1406 0.987159 15.1406 0.423068 14.5781Z" fill="white"/>
<path fill-rule="evenodd" clip-rule="evenodd" d="M3.32544 19.6906C2.89152 19.2781 2.89152 18.6094 3.32544 18.1969L13 9L22.6746 18.1969C23.1085 18.6094 23.1085 19.2781 22.6746 19.6906C22.2406 20.1031 21.5371 20.1031 21.1032 19.6906L13 11.9875L4.89679 19.6906C4.46287 20.1031 3.75935 20.1031 3.32544 19.6906Z" fill="white"/>
<path fill-rule="evenodd" clip-rule="evenodd" d="M5.26035 24.7469C4.91322 24.4094 4.91322 23.8622 5.26035 23.5247L13 16L20.7397 23.5247C21.0868 23.8622 21.0868 24.4094 20.7397 24.7469C20.3925 25.0844 19.8297 25.0844 19.4826 24.7469L13 18.4443L6.51743 24.7469C6.1703 25.0844 5.60748 25.0844 5.26035 24.7469Z" fill="white"/>
</svg>
