<svg width="70" height="69" viewBox="0 0 70 69" fill="none" xmlns="http://www.w3.org/2000/svg">
<path d="M69.5 34.5C69.5 53.2709 54.0606 68.5 35 68.5C15.9394 68.5 0.5 53.2709 0.5 34.5C0.5 15.7291 15.9394 0.5 35 0.5C54.0606 0.5 69.5 15.7291 69.5 34.5Z" stroke="#FB5D52"/>
<path fill-rule="evenodd" clip-rule="evenodd" d="M40.7042 39.7234C43.5818 41.2767 45.9648 44.1337 47.4173 47.7678L47.418 47.7694C47.7055 48.4928 47.6183 49.3135 47.1844 49.9588C46.7514 50.6042 46.0285 50.9908 45.2564 50.9908C40.7952 51 30.6045 51 26.1432 51C25.3666 51 24.6407 50.6119 24.2061 49.9634C23.7708 49.3158 23.6828 48.492 23.9718 47.7655L23.9725 47.7632C25.431 44.1314 27.8156 41.2767 30.6932 39.7234C30.7122 39.7111 30.7319 39.6989 30.7524 39.6882C31.1802 39.4608 31.6186 39.2625 32.0661 39.0941C31.3796 38.7297 30.7456 38.2612 30.1873 37.6985C28.725 36.2248 27.9036 34.2267 27.9036 32.1429V29.393C27.9036 27.3091 28.725 25.3103 30.1873 23.8374C31.6489 22.3637 33.6315 21.5361 35.6991 21.5361C36.7829 21.5361 37.8432 21.7635 38.8171 22.1914V21.5361C38.8171 21.102 39.1668 20.7499 39.5968 20.7499C40.0268 20.7499 40.3765 21.102 40.3765 21.5361V22.2909L41.1554 21.8377C41.5286 21.6211 42.0057 21.7497 42.2203 22.1248C42.4357 22.5007 42.3075 22.9815 41.9351 23.1981L41.072 23.7003C41.119 23.7455 41.1653 23.7907 41.2108 23.8374C42.6731 25.3103 43.4945 27.3091 43.4945 29.393V32.1429C43.4945 34.2267 42.6731 36.2248 41.2108 37.6985C40.6526 38.2612 40.0185 38.7305 39.3321 39.0941C39.7796 39.2625 40.218 39.4616 40.6458 39.6889C40.6655 39.6996 40.6852 39.7111 40.7042 39.7234ZM30.9147 41.3984C28.5696 42.8415 26.6415 45.3073 25.4189 48.3512C25.3226 48.5931 25.3522 48.8672 25.497 49.0831C25.6419 49.2989 25.8838 49.4283 26.1432 49.4283C30.6037 49.4283 40.7929 49.4283 45.2534 49.4199H45.2549C45.5113 49.4199 45.7502 49.2913 45.8935 49.0777C46.0369 48.8649 46.0657 48.5931 45.9709 48.3542C44.7536 45.3081 42.8271 42.8415 40.4834 41.3984L37.5406 45.1887C37.0977 45.759 36.4181 46.0928 35.6991 46.0928C34.9801 46.0928 34.3005 45.759 33.8575 45.1887L30.9147 41.3984ZM29.463 30.3675V32.1429C29.463 33.8095 30.1198 35.4087 31.2894 36.5877C32.4589 37.7659 34.0449 38.4281 35.6991 38.4281C37.3533 38.4281 38.9392 37.7659 40.1088 36.5877C41.2783 35.4087 41.9351 33.8095 41.9351 32.1429V30.255L37.8501 28.038C37.6673 27.9384 37.4526 27.917 37.2539 27.9782L29.463 30.3675ZM41.8616 28.4307C41.6606 27.1201 41.0508 25.8975 40.1088 24.9482C38.9392 23.7692 37.3533 23.107 35.6991 23.107C34.0449 23.107 32.4589 23.7692 31.2894 24.9482C30.2799 25.9656 29.6519 27.2969 29.4994 28.7139L36.7996 26.4747C37.3958 26.2917 38.0404 26.356 38.5896 26.6546L41.8616 28.4307ZM35.6991 39.9997C34.528 39.9997 33.3979 40.2371 32.3338 40.6757L35.0855 44.2202C35.2326 44.4101 35.4594 44.5211 35.6991 44.5211C35.9387 44.5211 36.1655 44.4101 36.3127 44.2202L39.0651 40.6765C38.0002 40.2371 36.8701 39.9997 35.6991 39.9997ZM26.345 33.7145C24.1932 33.7145 22.4473 31.9538 22.4473 29.7857C22.4473 27.881 23.795 26.291 25.5812 25.9327C25.8482 21.5062 29.4941 18 33.9531 18H37.4451C41.904 18 45.55 21.5062 45.8169 25.9327C47.6031 26.291 48.9509 27.881 48.9509 29.7857C48.9509 31.9538 47.2049 33.7145 45.0532 33.7145C44.6231 33.7145 44.2742 33.3624 44.2742 32.9283V26.454C44.2742 22.653 41.2169 19.5717 37.4451 19.5717H33.9531C30.1813 19.5717 27.1239 22.653 27.1239 26.454V32.9283C27.1239 33.3624 26.775 33.7145 26.345 33.7145ZM25.5653 27.5633C24.6574 27.8871 24.0059 28.7599 24.0059 29.7857C24.0059 30.8116 24.6574 31.6843 25.5653 32.0081V27.5633ZM45.8329 32.0081C46.7407 31.6843 47.3923 30.8116 47.3923 29.7857C47.3923 28.7599 46.7407 27.8871 45.8329 27.5633V32.0081Z" fill="#FB5D52"/>
</svg>
