<svg width="25" height="24" viewBox="0 0 25 24" fill="none" xmlns="http://www.w3.org/2000/svg">
<path fill-rule="evenodd" clip-rule="evenodd" d="M17.7071 4.20709C17.9174 3.9968 18.2026 3.87866 18.5 3.87866C18.6473 3.87866 18.7931 3.90767 18.9291 3.96402C19.0652 4.02037 19.1888 4.10296 19.2929 4.20709C19.397 4.31121 19.4796 4.43483 19.536 4.57087C19.5923 4.70692 19.6213 4.85273 19.6213 4.99998C19.6213 5.14724 19.5923 5.29305 19.536 5.42909C19.4796 5.56514 19.397 5.68875 19.2929 5.79288L6.98877 18.097L4.87439 18.6256L5.40299 16.5112L17.7071 4.20709ZM18.5 1.87866C17.6722 1.87866 16.8783 2.20751 16.2929 2.79288L3.79291 15.2929C3.66476 15.421 3.57384 15.5816 3.52988 15.7574L2.52988 19.7574C2.44468 20.0982 2.54453 20.4587 2.79291 20.7071C3.04129 20.9555 3.40178 21.0553 3.74256 20.9701L7.74256 19.9701C7.91839 19.9262 8.07897 19.8352 8.20713 19.7071L20.7071 7.20709C20.997 6.91725 21.2269 6.57316 21.3837 6.19446C21.5406 5.81576 21.6213 5.40988 21.6213 4.99998C21.6213 4.59008 21.5406 4.1842 21.3837 3.8055C21.2269 3.42681 20.997 3.08272 20.7071 2.79288C20.4173 2.50303 20.0732 2.27312 19.6945 2.11626C19.3158 1.9594 18.9099 1.87866 18.5 1.87866ZM12.5 19C11.9477 19 11.5 19.4477 11.5 20C11.5 20.5523 11.9477 21 12.5 21H21.5C22.0523 21 22.5 20.5523 22.5 20C22.5 19.4477 22.0523 19 21.5 19H12.5Z" fill="#FB5D52"/>
</svg>
