<svg width="25" height="24" viewBox="0 0 25 24" fill="none" xmlns="http://www.w3.org/2000/svg">
<path fill-rule="evenodd" clip-rule="evenodd" d="M12.5 3.2C10.6591 3.2 9.16667 4.67746 9.16667 6.5C9.16667 8.32254 10.6591 9.8 12.5 9.8C14.3409 9.8 15.8333 8.32254 15.8333 6.5C15.8333 4.67746 14.341 3.2 12.5 3.2ZM6.94444 6.5C6.94444 3.46243 9.43175 1 12.5 1C15.5682 1 18.0556 3.46243 18.0556 6.5C18.0556 9.53757 15.5682 12 12.5 12C9.43175 12 6.94444 9.53757 6.94444 6.5ZM4.12718 15.8109C5.16905 14.7795 6.58213 14.2 8.05556 14.2H16.9444C18.4179 14.2 19.8309 14.7795 20.8728 15.8109C21.9147 16.8424 22.5 18.2413 22.5 19.7V21.9C22.5 22.5075 22.0025 23 21.3889 23C20.7752 23 20.2778 22.5075 20.2778 21.9V19.7C20.2778 18.8248 19.9266 17.9854 19.3015 17.3665C18.6763 16.7477 17.8285 16.4 16.9444 16.4H8.05556C7.1715 16.4 6.32365 16.7477 5.69853 17.3665C5.07341 17.9854 4.72222 18.8248 4.72222 19.7V21.9C4.72222 22.5075 4.22476 23 3.61111 23C2.99746 23 2.5 22.5075 2.5 21.9V19.7C2.5 18.2413 3.08532 16.8424 4.12718 15.8109Z" fill="#484C5B"/>
</svg>
