<svg width="14" height="14" viewBox="0 0 14 14" fill="none" xmlns="http://www.w3.org/2000/svg">
<path fill-rule="evenodd" clip-rule="evenodd" d="M10.9668 3.54009C12.1284 4.36895 13.0217 5.52002 13.5363 6.85105C13.5711 6.94717 13.5711 7.05243 13.5363 7.14855C13.0217 8.47958 12.1284 9.63066 10.9668 10.4595C9.80514 11.2884 8.42608 11.7587 7.00006 11.8123C5.57403 11.7587 4.19498 11.2884 3.03333 10.4595C1.87169 9.63066 0.978378 8.47958 0.463808 7.14855C0.429056 7.05243 0.429056 6.94717 0.463808 6.85105C0.978378 5.52002 1.87169 4.36895 3.03333 3.54009C4.19498 2.71123 5.57403 2.24093 7.00006 2.1873C8.42608 2.24093 9.80514 2.71123 10.9668 3.54009ZM5.42016 9.36429C5.88781 9.67677 6.43762 9.84355 7.00006 9.84355C7.75391 9.84239 8.47656 9.54241 9.00962 9.00936C9.54267 8.4763 9.84265 7.75366 9.84381 6.9998C9.84381 6.43736 9.67703 5.88755 9.36455 5.4199C9.05208 4.95225 8.60794 4.58776 8.08831 4.37252C7.56869 4.15728 6.9969 4.10097 6.44527 4.21069C5.89364 4.32042 5.38693 4.59126 4.98922 4.98897C4.59152 5.38667 4.32068 5.89338 4.21095 6.44501C4.10122 6.99665 4.15754 7.56843 4.37278 8.08806C4.58801 8.60768 4.9525 9.05182 5.42016 9.36429ZM8.75012 7.00017C8.75012 7.96667 7.96662 8.75017 7.00012 8.75017C6.03362 8.75017 5.25012 7.96667 5.25012 7.00017C5.25012 6.03367 6.03362 5.25017 7.00012 5.25017C7.96662 5.25017 8.75012 6.03367 8.75012 7.00017Z" fill="#484C5B"/>
</svg>
