<svg width="25" height="24" viewBox="0 0 25 24" fill="none" xmlns="http://www.w3.org/2000/svg">
<path fill-rule="evenodd" clip-rule="evenodd" d="M3.96752 23C4.13846 23 4.3024 22.9321 4.42328 22.8112L9.99905 17.2354C10.7563 17.5978 11.6045 17.8008 12.5 17.8008C15.7037 17.8008 18.3008 15.2037 18.3008 12C18.3008 11.3059 18.1789 10.6403 17.9553 10.0234H22.8555C23.2114 10.0234 23.5 9.73487 23.5 9.3789V8.51953C23.5 7.17854 22.7773 6.00635 21.7002 5.37118C22.1494 4.90719 22.4258 4.27495 22.4258 3.57812C22.4258 2.15426 21.2715 1 19.8477 1C18.4238 1 17.2696 2.15426 17.2696 3.57812C17.2696 4.27494 17.546 4.90718 17.9952 5.37117C17.1666 5.85974 16.5478 6.66606 16.3063 7.62253C15.2876 6.736 13.9565 6.19922 12.5 6.19922C11.0435 6.19922 9.71242 6.736 8.69372 7.62252C8.45221 6.66606 7.83339 5.85975 7.00485 5.37118C7.45405 4.90719 7.73049 4.27494 7.73049 3.57812C7.73049 2.15426 6.57623 1 5.15236 1C3.7285 1 2.57424 2.15426 2.57424 3.57812C2.57424 4.27493 2.85067 4.90717 3.29986 5.37116C2.2227 6.00633 1.5 7.17853 1.5 8.51952V9.3789C1.5 9.73486 1.78857 10.0234 2.14453 10.0234H7.04467C6.82111 10.6403 6.69921 11.3059 6.69921 12C6.69921 12.8955 6.90215 13.7437 7.26455 14.501L1.68878 20.0767C1.43708 20.3284 1.43707 20.7365 1.68877 20.9882L3.51177 22.8112C3.63264 22.9321 3.79658 23 3.96752 23ZM8.87922 16.5323C8.54274 16.2631 8.23689 15.9573 7.96773 15.6208L3.05603 20.5324L3.96753 21.444L8.87922 16.5323ZM8.60376 14.2763C8.21253 13.6081 7.98827 12.8302 7.98827 12C7.98827 11.1691 8.21289 10.3907 8.60471 9.72208C8.60786 9.71707 8.61095 9.712 8.61397 9.70689C8.64353 9.65689 8.67276 9.60913 8.70227 9.56325C8.70288 9.56229 8.7035 9.56133 8.70411 9.56036C9.50695 8.3138 10.9071 7.48828 12.5 7.48828C14.0983 7.48828 15.5025 8.31938 16.304 9.57298C16.3314 9.61588 16.3586 9.66042 16.386 9.7069C16.389 9.71188 16.392 9.71682 16.3951 9.72171C16.787 10.3904 17.0117 11.1689 17.0117 12C17.0117 13.1359 16.5919 14.1737 15.8991 14.9669C15.6001 14.2018 15.0511 13.562 14.352 13.149C14.8015 12.685 15.0781 12.0525 15.0781 11.3555C15.0781 9.9316 13.9239 8.77734 12.5 8.77734C11.0762 8.77734 9.9219 9.9316 9.9219 11.3555C9.9219 12.0525 10.1985 12.685 10.648 13.149C9.94899 13.5619 9.40002 14.2016 9.10107 14.9665C8.91846 14.7575 8.75482 14.5315 8.61284 14.2912C8.60987 14.2862 8.60685 14.2812 8.60376 14.2763ZM14.8212 15.8696C14.143 16.2773 13.3489 16.5117 12.5 16.5117C11.6697 16.5117 10.8918 16.2874 10.2236 15.8962C10.2187 15.8931 10.2138 15.8901 10.2088 15.8872C10.1988 15.8813 10.1888 15.8753 10.1789 15.8693C10.3795 14.7697 11.3389 13.9364 12.4941 13.9336L12.5 13.9336L12.5059 13.9336C13.6612 13.9364 14.6206 14.7698 14.8212 15.8696ZM3.8633 3.57812C3.8633 4.28875 4.43831 4.86507 5.14845 4.86718L5.15234 4.86718L5.15627 4.86718C5.86641 4.86508 6.44143 4.28876 6.44143 3.57812C6.44143 2.86619 5.8643 2.28906 5.15236 2.28906C4.44043 2.28906 3.8633 2.86619 3.8633 3.57812ZM5.15236 6.15625L5.15679 6.15624C6.45995 6.15865 7.51563 7.2158 7.51563 8.51952V8.73437H2.78906V8.51952C2.78906 7.21579 3.84474 6.15864 5.14791 6.15624L5.15236 6.15625ZM18.5586 3.57812C18.5586 4.29006 19.1357 4.86719 19.8477 4.86719C20.5596 4.86719 21.1367 4.29006 21.1367 3.57812C21.1367 2.86619 20.5596 2.28906 19.8477 2.28906C19.1357 2.28906 18.5586 2.86619 18.5586 3.57812ZM12.4948 12.6445C11.7853 12.6417 11.211 12.0657 11.211 11.3555C11.211 10.6435 11.7881 10.0664 12.5 10.0664C13.212 10.0664 13.7891 10.6435 13.7891 11.3555C13.7891 12.0657 13.2148 12.6417 12.5052 12.6445L12.5 12.6445L12.4948 12.6445ZM17.4844 8.51953V8.73437H22.2109V8.51953C22.2109 7.21432 21.1529 6.15625 19.8477 6.15625C18.5424 6.15625 17.4844 7.21432 17.4844 8.51953Z" fill="#484C5B"/>
<path fill-rule="evenodd" clip-rule="evenodd" d="M16.1524 22.3555C16.1524 22.7114 16.4409 23 16.7969 23H22.8125C23.1685 23 23.457 22.7114 23.457 22.3555V21.4961C23.457 20.1551 22.7344 18.9829 21.6572 18.3477C22.1064 17.8838 22.3828 17.2515 22.3828 16.5547C22.3828 15.1308 21.2286 13.9766 19.8047 13.9766C18.3809 13.9766 17.2266 15.1308 17.2266 16.5547C17.2266 17.2515 17.503 17.8837 17.9522 18.3477C16.8751 18.9829 16.1524 20.1551 16.1524 21.4961V22.3555ZM19.8055 19.1328H19.8039C18.4991 19.1332 17.4414 20.1911 17.4414 21.4961V21.7109H22.168V21.4961C22.168 20.1911 21.1103 19.1332 19.8055 19.1328ZM18.5157 16.5547C18.5157 17.2666 19.0928 17.8437 19.8047 17.8437C20.5167 17.8437 21.0938 17.2666 21.0938 16.5547C21.0938 15.8427 20.5167 15.2656 19.8047 15.2656C19.0928 15.2656 18.5157 15.8427 18.5157 16.5547Z" fill="#484C5B"/>
</svg>
