<svg width="80" height="80" viewBox="0 0 80 80" fill="none" xmlns="http://www.w3.org/2000/svg">
<circle cx="40" cy="40" r="39.5" stroke="white" stroke-dasharray="4 4"/>
<circle cx="39.9996" cy="40" r="34.2857" fill="white"/>
<path d="M40.001 31.6071C41.3817 31.6071 42.501 30.4879 42.501 29.1071C42.501 27.7264 41.3817 26.6071 40.001 26.6071C38.6203 26.6071 37.501 27.7264 37.501 29.1071C37.501 30.4879 38.6203 31.6071 40.001 31.6071Z" fill="#FB5D52"/>
<path d="M52.8574 35.8929C54.2381 35.8929 55.3574 34.7736 55.3574 33.3929C55.3574 32.0122 54.2381 30.8929 52.8574 30.8929C51.4767 30.8929 50.3574 32.0122 50.3574 33.3929C50.3574 34.7736 51.4767 35.8929 52.8574 35.8929Z" fill="#FB5D52"/>
<path d="M27.1436 35.8929C28.5243 35.8929 29.6436 34.7736 29.6436 33.3929C29.6436 32.0122 28.5243 30.8929 27.1436 30.8929C25.7628 30.8929 24.6436 32.0122 24.6436 33.3929C24.6436 34.7736 25.7628 35.8929 27.1436 35.8929Z" fill="#FB5D52"/>
<path fill-rule="evenodd" clip-rule="evenodd" d="M53.1939 35.0314C53.2854 34.5772 53.0739 34.1172 52.6725 33.8886C52.2696 33.6614 51.7654 33.7172 51.4225 34.0286C51.4225 34.0286 49.9282 35.3872 48.2425 36.92C47.4539 37.6372 46.3611 37.9157 45.3254 37.6657C44.2896 37.4157 43.4454 36.6686 43.0711 35.67L41.0039 30.16C40.8468 29.7414 40.4482 29.4643 40.0011 29.4643C39.5539 29.4643 39.1554 29.7414 38.9982 30.16L36.9311 35.67C36.5568 36.6686 35.7125 37.4157 34.6768 37.6657C33.6411 37.9157 32.5482 37.6372 31.7596 36.92C30.0739 35.3872 28.5796 34.0286 28.5796 34.0286C28.2368 33.7172 27.7325 33.6614 27.3296 33.8886C26.9282 34.1172 26.7168 34.5772 26.8082 35.0314C26.8082 35.0314 28.3982 42.9814 29.2054 47.02C29.5725 48.8572 31.1854 50.1786 33.0582 50.1786H46.9439C48.8168 50.1786 50.4296 48.8572 50.7968 47.02C51.6039 42.9814 53.1939 35.0314 53.1939 35.0314Z" fill="#FB5D52"/>
<path fill-rule="evenodd" clip-rule="evenodd" d="M48.5717 52.3214H31.4289C30.8374 52.3214 30.3574 52.8014 30.3574 53.3929C30.3574 53.9843 30.8374 54.4643 31.4289 54.4643H48.5717C49.1631 54.4643 49.6431 53.9843 49.6431 53.3929C49.6431 52.8014 49.1631 52.3214 48.5717 52.3214Z" fill="#FB5D52"/>
</svg>
