<svg width="50" height="50" viewBox="0 0 50 50" fill="none" xmlns="http://www.w3.org/2000/svg">
<circle cx="25" cy="25" r="25" fill="#FB5D52" fill-opacity="0.15"/>
<g clip-path="url(#clip0_176_1330)">
<path d="M22.0186 30.1325C22.5088 31.2962 23.6605 32.1156 25.0003 32.1156C26.3402 32.1156 27.4918 31.2963 27.9821 30.1326C27.0671 30.5669 26.0594 30.8219 25.0003 30.8219C23.9412 30.8219 22.9335 30.5668 22.0186 30.1325Z" fill="#FB5D52"/>
<path d="M32.2211 30.2287C31.2235 30.0655 30.304 29.9427 29.4219 29.8379C28.9809 31.8758 27.1678 33.4094 25 33.4094C22.8322 33.4094 21.0191 31.8759 20.5781 29.838C19.6959 29.9429 18.7764 30.0658 17.7789 30.2293C15.5912 30.5881 13.96 32.4662 13.96 34.6943V35.3931C13.96 35.7507 14.2493 36.04 14.6068 36.04H35.3931C35.7506 36.04 36.04 35.7507 36.04 35.3931V34.6943C36.04 32.4662 34.4087 30.5881 32.2211 30.2287Z" fill="#FB5D52"/>
<path d="M22.1233 18.5995C22.7942 18.264 23.5535 17.8844 25.0001 17.8844C26.4468 17.8844 27.2067 18.2646 27.877 18.5995C28.5517 18.9378 29.2228 19.2533 30.754 19.1515C30.4405 16.4761 28.3259 14.2614 25.647 13.96V15.9437C25.647 16.3013 25.3577 16.5906 25.0001 16.5906C24.6426 16.5906 24.3533 16.3013 24.3533 15.9437V13.96C21.6735 14.2615 19.5585 16.4773 19.2461 19.1537C20.8025 19.2552 21.4719 18.9258 22.1233 18.5995Z" fill="#FB5D52"/>
<path d="M22.1088 26.9406C22.466 26.9406 22.7557 26.651 22.7557 26.2938C22.7557 25.9365 22.466 25.6469 22.1088 25.6469C21.7515 25.6469 21.4619 25.9365 21.4619 26.2938C21.4619 26.651 21.7515 26.9406 22.1088 26.9406Z" fill="#FB5D52"/>
<path d="M30.8223 20.5825C28.9392 20.7101 28.1085 20.1613 27.2986 19.7568C26.6776 19.446 26.1413 19.1781 25.0004 19.1781C23.8595 19.1781 23.3232 19.446 22.7022 19.7568C21.9688 20.1238 21.2543 20.4807 19.8519 20.4807C19.6438 20.4807 19.4191 20.5992 19.1785 20.5824C18.4255 20.8497 17.8848 21.5692 17.8848 22.4125C17.8848 23.2653 18.4375 23.9911 19.2038 24.2508C19.3135 25.4281 19.7858 26.495 20.4927 27.3643C20.2885 27.0572 20.1682 26.6895 20.1682 26.2938C20.1682 25.2237 21.0388 24.3531 22.1089 24.3531H24.9939C25.3514 24.3531 25.6408 24.6425 25.6408 25C25.6408 25.3576 25.3514 25.6469 24.9939 25.6469H23.9303C24.0028 25.8502 24.0495 26.0659 24.0495 26.2938C24.0495 27.3639 23.179 28.2344 22.1089 28.2344C21.6299 28.2344 21.1965 28.0534 20.8577 27.7647C21.9151 28.844 23.3736 29.5281 25.0004 29.5281C28.0269 29.5281 30.5216 27.2072 30.797 24.2508C31.5633 23.9911 32.116 23.2653 32.116 22.4125C32.116 21.5692 31.5753 20.8497 30.8223 20.5825ZM23.0598 22.4125C22.7025 22.4125 22.4129 22.1229 22.4129 21.7656C22.4129 21.4083 22.7025 21.1188 23.0598 21.1188C23.417 21.1188 23.7066 21.4083 23.7066 21.7656C23.7066 22.1229 23.417 22.4125 23.0598 22.4125ZM26.941 22.4125C26.5838 22.4125 26.2941 22.1229 26.2941 21.7656C26.2941 21.4083 26.5838 21.1188 26.941 21.1188C27.2983 21.1188 27.5879 21.4083 27.5879 21.7656C27.5879 22.1229 27.2983 22.4125 26.941 22.4125Z" fill="#FB5D52"/>
</g>
<defs>
<clipPath id="clip0_176_1330">
<rect width="24" height="24" fill="white" transform="translate(13 13)"/>
</clipPath>
</defs>
</svg>
