<svg width="40" height="40" viewBox="0 0 40 40" fill="none" xmlns="http://www.w3.org/2000/svg">
<mask id="mask0_1_7" style="mask-type:alpha" maskUnits="userSpaceOnUse" x="0" y="0" width="40" height="40">
<rect width="40" height="40" fill="#D9D9D9"/>
</mask>
<g mask="url(#mask0_1_7)">
</g>
<g clip-path="url(#clip0_1_7)">
<path d="M12.7441 12.7441C12.9004 12.5878 13.1123 12.5 13.3333 12.5H20.8333C21.0543 12.5 21.2663 12.5878 21.4226 12.7441C21.5789 12.9004 21.6667 13.1123 21.6667 13.3333V14.1667C21.6667 14.6269 22.0398 15 22.5 15C22.9602 15 23.3333 14.6269 23.3333 14.1667V13.3333C23.3333 12.6703 23.0699 12.0344 22.6011 11.5656C22.1323 11.0967 21.4964 10.8333 20.8333 10.8333H13.3333C12.6703 10.8333 12.0344 11.0967 11.5656 11.5656C11.0967 12.0344 10.8333 12.6703 10.8333 13.3333V20.8333C10.8333 21.4964 11.0967 22.1323 11.5656 22.6011C12.0344 23.0699 12.6703 23.3333 13.3333 23.3333H14.1667C14.6269 23.3333 15 22.9602 15 22.5C15 22.0398 14.6269 21.6667 14.1667 21.6667H13.3333C13.1123 21.6667 12.9004 21.5789 12.7441 21.4226C12.5878 21.2663 12.5 21.0543 12.5 20.8333V13.3333C12.5 13.1123 12.5878 12.9004 12.7441 12.7441Z" fill="#FB5D52"/>
<path fill-rule="evenodd" clip-rule="evenodd" d="M19.1667 16.6667C17.7859 16.6667 16.6667 17.7859 16.6667 19.1667V26.6667C16.6667 28.0474 17.7859 29.1667 19.1667 29.1667H26.6667C28.0474 29.1667 29.1667 28.0474 29.1667 26.6667V19.1667C29.1667 17.7859 28.0474 16.6667 26.6667 16.6667H19.1667ZM18.3333 19.1667C18.3333 18.7064 18.7064 18.3333 19.1667 18.3333H26.6667C27.1269 18.3333 27.5 18.7064 27.5 19.1667V26.6667C27.5 27.1269 27.1269 27.5 26.6667 27.5H19.1667C18.7064 27.5 18.3333 27.1269 18.3333 26.6667V19.1667Z" fill="#FB5D52"/>
</g>
<defs>
<clipPath id="clip0_1_7">
<rect width="20" height="20" fill="white" transform="translate(10 10)"/>
</clipPath>
</defs>
</svg>
