<svg width="20" height="20" viewBox="0 0 20 20" fill="none" xmlns="http://www.w3.org/2000/svg">
<path d="M19.3652 3.92548V12.245C19.3652 13.6662 18.2088 14.8228 16.7875 14.8228H8.60916L3.18386 18.5981V14.8228C1.76662 14.818 0.615234 13.6634 0.615234 12.245V3.92548C0.615234 2.50412 1.77166 1.34769 3.19302 1.34769H16.7875C18.2088 1.34769 19.3652 2.50412 19.3652 3.92548Z" fill="#56CCFF"/>
<path d="M19.3653 3.92548V12.245C19.3653 13.6662 18.2089 14.8228 16.7875 14.8228H9.98743V1.34769H16.7875C18.2089 1.34769 19.3653 2.50412 19.3653 3.92548Z" fill="#3BC4FF"/>
<path d="M5.63367 5.22953H14.3467V6.32816H5.63367V5.22953Z" fill="white"/>
<path d="M5.63367 7.57328H14.3467V8.67191H5.63367V7.57328Z" fill="white"/>
<path d="M5.63367 9.91703H14.3467V11.0157H5.63367V9.91703Z" fill="white"/>
</svg>
