<svg width="25" height="24" viewBox="0 0 25 24" fill="none" xmlns="http://www.w3.org/2000/svg">
<g clip-path="url(#clip0_243_1540)">
<path d="M10.6291 4.54364L11.5742 3.59242V8.59187C11.5742 9.10653 11.9913 9.52375 12.5059 9.52375C13.0204 9.52375 13.4375 9.10653 13.4375 8.59187V3.6042L14.3709 4.54364L15.7008 3.22162L12.5 0L9.29919 3.22162L10.6291 4.54364Z" fill="#484C5B"/>
<path d="M3.12503 6.75904L4.05078 5.83306V10.1216C4.05078 10.6459 4.47576 11.071 5 11.071C5.52424 11.071 5.94922 10.6459 5.94922 10.1216V5.83301L6.87503 6.75904L8.20085 5.43289L5.00003 2.23127L1.7992 5.43289L3.12503 6.75904Z" fill="#484C5B"/>
<path d="M18.125 6.75904L19.0625 5.82131V10.1391C19.0625 10.6538 19.4796 11.071 19.9941 11.071C20.5087 11.071 20.9258 10.6538 20.9258 10.1391V5.80959L21.875 6.75904L23.2008 5.43289L20 2.23127L16.7992 5.43289L18.125 6.75904Z" fill="#484C5B"/>
<path fill-rule="evenodd" clip-rule="evenodd" d="M24.5 23.0623V24H0.5V23.0623C0.5 16.3504 5.74853 10.8717 12.5 10.8717C19.2515 10.8717 24.5 16.3504 24.5 23.0623ZM11.5625 12.7895C9.41115 12.9848 7.47255 13.8471 5.93674 15.1712L6.5338 15.7684C6.89992 16.1346 6.89992 16.7284 6.5338 17.0946C6.16768 17.4608 5.57409 17.4608 5.20797 17.0946L4.63603 16.5225C3.39755 18.0737 2.59844 20.0045 2.41528 22.1245H12.2664C12.3097 21.9824 12.3876 21.8485 12.5 21.7361L15.8617 18.3736C16.2278 18.0074 16.8214 18.0074 17.1875 18.3736C17.5536 18.7398 17.5536 19.3335 17.1875 19.6998L14.7633 22.1245H22.5847C22.4016 20.0045 21.6025 18.0737 20.364 16.5225L19.792 17.0946C19.4259 17.4608 18.8323 17.4608 18.4662 17.0946C18.1001 16.7284 18.1001 16.1346 18.4662 15.7684L19.0633 15.1712C17.5275 13.8471 15.5889 12.9849 13.4375 12.7895V13.6849C13.4375 14.2028 13.0178 14.6227 12.5 14.6227C11.9822 14.6227 11.5625 14.2028 11.5625 13.6849V12.7895Z" fill="#484C5B"/>
</g>
<defs>
<clipPath id="clip0_243_1540">
<rect width="24" height="24" fill="white" transform="translate(0.5)"/>
</clipPath>
</defs>
</svg>
