<svg width="14" height="14" viewBox="0 0 14 14" fill="none" xmlns="http://www.w3.org/2000/svg">
<g clip-path="url(#clip0_166_2406)">
<path fill-rule="evenodd" clip-rule="evenodd" d="M9.91667 2.91666C9.5945 2.91666 9.33333 3.17783 9.33333 3.5C9.33333 3.82216 9.5945 4.08333 9.91667 4.08333H12.0084L7.875 8.21671L5.37081 5.71252C5.14301 5.48471 4.77366 5.48471 4.54586 5.71252L0.170854 10.0875C-0.0569515 10.3153 -0.0569515 10.6847 0.170854 10.9125C0.39866 11.1403 0.768007 11.1403 0.995812 10.9125L4.95833 6.94996L7.46252 9.45414C7.69033 9.68195 8.05967 9.68195 8.28748 9.45414L12.8333 4.90829V7C12.8333 7.32216 13.0945 7.58333 13.4167 7.58333C13.7388 7.58333 14 7.32216 14 7V3.5C14 3.17783 13.7388 2.91666 13.4167 2.91666H9.91667Z" fill="#2860F1"/>
</g>
<defs>
<clipPath id="clip0_166_2406">
<rect width="14" height="14" fill="white"/>
</clipPath>
</defs>
</svg>
