<svg width="25" height="24" viewBox="0 0 25 24" fill="none" xmlns="http://www.w3.org/2000/svg">
<g clip-path="url(#clip0_243_1534)">
<path fill-rule="evenodd" clip-rule="evenodd" d="M6.35939 18.6094C6.35939 19.7744 7.30378 20.7188 8.46876 20.7188C9.63374 20.7188 10.5781 19.7744 10.5781 18.6094C10.5781 17.4444 9.63374 16.5 8.46876 16.5C7.30378 16.5 6.35939 17.4444 6.35939 18.6094ZM8.46876 19.7812C7.82155 19.7812 7.29689 19.2566 7.29689 18.6094C7.29689 17.9622 7.82155 17.4375 8.46876 17.4375C9.11597 17.4375 9.64064 17.9622 9.64064 18.6094C9.64064 19.2566 9.11597 19.7812 8.46876 19.7812Z" fill="#484C5B"/>
<path fill-rule="evenodd" clip-rule="evenodd" d="M11.1875 18.6094C11.1875 19.7744 12.1319 20.7188 13.2969 20.7188C14.4619 20.7188 15.4063 19.7744 15.4063 18.6094C15.4063 17.4444 14.4619 16.5 13.2969 16.5C12.1319 16.5 11.1875 17.4444 11.1875 18.6094ZM13.2969 19.7812C12.6497 19.7812 12.125 19.2566 12.125 18.6094C12.125 17.9622 12.6497 17.4375 13.2969 17.4375C13.9441 17.4375 14.4688 17.9622 14.4688 18.6094C14.4688 19.2566 13.9441 19.7812 13.2969 19.7812Z" fill="#484C5B"/>
<path fill-rule="evenodd" clip-rule="evenodd" d="M3.45529 18.9509L3.45317 18.4821C3.45529 18.9509 3.45529 18.9509 3.45529 18.9509L3.57504 18.9503C3.6482 18.95 3.74789 18.9496 3.85403 18.9492C4.06682 18.9483 4.30402 18.9475 4.40628 18.9475C5.08206 18.9475 5.63005 18.3997 5.63005 17.7238C5.63005 17.0479 5.0821 16.5 4.40628 16.5H3.45317C3.19429 16.5 2.98442 16.7099 2.98442 16.9688V18.4821C2.98442 18.6068 3.0341 18.7264 3.12246 18.8143C3.21083 18.9023 3.3306 18.9514 3.45529 18.9509ZM3.92192 18.0114V17.4375H4.40628C4.56437 17.4375 4.69255 17.5657 4.69255 17.7238C4.69255 17.8818 4.56441 18.01 4.40628 18.01C4.31337 18.01 4.11399 18.0107 3.92192 18.0114Z" fill="#484C5B"/>
<path fill-rule="evenodd" clip-rule="evenodd" d="M3.45518 20.7188L3.4531 20.25C3.45518 20.7188 3.45518 20.7188 3.45518 20.7188L3.59601 20.7181C3.68204 20.7178 3.79925 20.7173 3.92401 20.7168C4.17404 20.7158 4.45288 20.7149 4.57271 20.7149C5.31931 20.7149 5.92468 20.1096 5.92468 19.3629C5.92468 18.6162 5.31931 18.0109 4.57271 18.0109H3.4531C3.19422 18.0109 2.98435 18.2208 2.98435 18.4797V20.25C2.98435 20.3747 3.03402 20.4942 3.12238 20.5822C3.21074 20.6702 3.3305 20.7193 3.45518 20.7188ZM3.92185 19.7793V18.9484H4.57271C4.80158 18.9484 4.98718 19.134 4.98718 19.3629C4.98718 19.5918 4.80158 19.7774 4.57271 19.7774C4.45087 19.7774 4.17078 19.7783 3.92185 19.7793Z" fill="#484C5B"/>
<path fill-rule="evenodd" clip-rule="evenodd" d="M19.4535 16.9688C19.4535 17.2276 19.6634 17.4375 19.9223 17.4375H21.7344C21.9933 17.4375 22.2031 17.2276 22.2031 16.9688C22.2031 16.7099 21.9933 16.5 21.7344 16.5H19.9223C19.6634 16.5 19.4535 16.7099 19.4535 16.9688Z" fill="#484C5B"/>
<path fill-rule="evenodd" clip-rule="evenodd" d="M20.8247 20.7188C21.0836 20.7188 21.2934 20.5089 21.2934 20.25V17.0735C21.2934 16.8147 21.0836 16.6048 20.8247 16.6048C20.5658 16.6048 20.3559 16.8147 20.3559 17.0735V20.25C20.3559 20.5089 20.5658 20.7188 20.8247 20.7188Z" fill="#484C5B"/>
<path fill-rule="evenodd" clip-rule="evenodd" d="M16.0092 20.0784C16.3426 20.4463 16.8762 20.7188 17.5 20.7188C18.1675 20.7188 18.7446 20.3138 18.9106 19.74C18.9959 19.4453 18.9646 19.1201 18.7862 18.83C18.6113 18.5456 18.3194 18.3328 17.9471 18.1954C17.7044 18.1059 17.4724 18.0119 17.3003 17.9399C17.2145 17.9039 17.1441 17.8737 17.0955 17.8526C17.0841 17.8477 17.0738 17.8432 17.0649 17.8393C17.0198 17.7996 17.0004 17.7422 17.0123 17.6768C17.0245 17.609 17.0769 17.5155 17.2309 17.4691C17.4396 17.4063 17.644 17.4451 17.8172 17.5174C17.9023 17.5528 17.9721 17.5934 18.0197 17.6245C18.0432 17.6398 18.0604 17.6523 18.0705 17.6599C18.0755 17.6636 18.0786 17.6661 18.0798 17.6671L18.08 17.6672C18.2781 17.8312 18.5719 17.805 18.7377 17.6077C18.9043 17.4095 18.8787 17.1138 18.6805 16.9473L18.3789 17.3061C18.6805 16.9473 18.6803 16.9471 18.6802 16.947L18.6793 16.9462L18.6778 16.945C18.6768 16.9442 18.6756 16.9432 18.6742 16.9421C18.6715 16.9399 18.6682 16.9372 18.6643 16.9341C18.6565 16.9279 18.6464 16.9199 18.6339 16.9106C18.6091 16.8919 18.5749 16.8673 18.5323 16.8395C18.4478 16.7844 18.3271 16.7142 18.1781 16.6521C17.8834 16.5292 17.4462 16.4251 16.9605 16.5715C15.993 16.8629 15.7346 18.0934 16.5743 18.6408C16.595 18.6543 16.6168 18.6662 16.6393 18.6763L16.8303 18.2482C16.6393 18.6763 16.6394 18.6763 16.6394 18.6763L16.6455 18.679C16.6493 18.6807 16.6547 18.6831 16.6618 18.6862C16.6759 18.6924 16.6963 18.7013 16.7222 18.7126C16.7741 18.7351 16.8483 18.767 16.9384 18.8047C17.1181 18.8799 17.3633 18.9794 17.6226 19.075M17.5 19.7813C17.1493 19.7813 16.8653 19.627 16.7038 19.4488C16.5299 19.257 16.2335 19.2425 16.0417 19.4163C15.8499 19.5902 15.8353 19.8866 16.0092 20.0784M17.5 19.7813C17.8052 19.7813 17.9747 19.6017 18.0101 19.4795L17.5 19.7813ZM18.0101 19.4795C18.0255 19.4263 18.0211 19.3756 17.9876 19.3211L18.0101 19.4795ZM17.9876 19.3211C17.9507 19.261 17.8545 19.1605 17.6226 19.075L17.9876 19.3211Z" fill="#484C5B"/>
<path fill-rule="evenodd" clip-rule="evenodd" d="M3.07812 22.5938C2.43089 22.5938 1.90625 22.0691 1.90625 21.4219V15.7969C1.90625 15.1496 2.43089 14.625 3.07812 14.625H21.9219C22.5691 14.625 23.0938 15.1496 23.0938 15.7969V21.4219C23.0938 22.0691 22.5691 22.5938 21.9219 22.5938H3.07812ZM0.5 21.4219C0.5 22.8458 1.65424 24 3.07812 24H21.9219C23.3458 24 24.5 22.8458 24.5 21.4219V15.7969C24.5 14.373 23.3458 13.2188 21.9219 13.2188H3.07812C1.65424 13.2188 0.5 14.373 0.5 15.7969V21.4219Z" fill="#484C5B"/>
<path fill-rule="evenodd" clip-rule="evenodd" d="M10.3906 11.0156C10.3906 11.404 10.7054 11.7188 11.0937 11.7188H13.9062C14.2946 11.7188 14.6094 11.404 14.6094 11.0156V5.15625H15.3125C15.5788 5.15625 15.8223 5.00578 15.9414 4.76757C16.0605 4.52936 16.0348 4.24431 15.875 4.03125L13.0625 0.28125C12.9297 0.104198 12.7213 0 12.5 0C12.2787 0 12.0703 0.104198 11.9375 0.28125L9.12499 4.03125C8.9652 4.24431 8.9395 4.52936 9.0586 4.76757C9.1777 5.00578 9.42117 5.15625 9.68749 5.15625H10.3906V11.0156ZM11.0937 3.75L12.5 1.875L13.9062 3.75C13.5179 3.75 13.2031 4.0648 13.2031 4.45312V10.3125H11.7969V4.45312C11.7969 4.0648 11.4821 3.75 11.0937 3.75Z" fill="#484C5B"/>
<path fill-rule="evenodd" clip-rule="evenodd" d="M3.35937 11.0156C3.35937 11.404 3.67417 11.7188 4.06249 11.7188H6.87499C7.26332 11.7188 7.57812 11.404 7.57812 11.0156V7.96875H8.28124C8.54757 7.96875 8.79103 7.81828 8.91014 7.58007C9.02924 7.34187 9.00354 7.05681 8.84374 6.84375L6.03124 3.09375C5.89846 2.9167 5.69006 2.8125 5.46874 2.8125C5.24743 2.8125 5.03903 2.9167 4.90624 3.09375L2.09374 6.84375C1.93395 7.05681 1.90824 7.34187 2.02735 7.58007C2.14645 7.81828 2.38992 7.96875 2.65624 7.96875H3.35937V11.0156ZM4.06249 6.5625L5.46874 4.6875L6.87499 6.5625C6.48667 6.5625 6.17187 6.8773 6.17187 7.26563V10.3125H4.76562V7.26563C4.76562 6.8773 4.45082 6.5625 4.06249 6.5625Z" fill="#484C5B"/>
<path fill-rule="evenodd" clip-rule="evenodd" d="M17.4219 11.0156C17.4219 11.404 17.7367 11.7188 18.125 11.7188H20.9375C21.3258 11.7188 21.6406 11.404 21.6406 11.0156V7.96875H22.3437C22.6101 7.96875 22.8535 7.81828 22.9726 7.58007C23.0917 7.34187 23.066 7.05681 22.9062 6.84375L20.0937 3.09375C19.961 2.9167 19.7526 2.8125 19.5312 2.8125C19.3099 2.8125 19.1015 2.9167 18.9687 3.09375L16.1562 6.84375C15.9965 7.05681 15.9707 7.34187 16.0899 7.58007C16.209 7.81828 16.4524 7.96875 16.7187 7.96875H17.4219V11.0156ZM18.125 6.5625L19.5312 4.6875L20.9375 6.5625C20.5492 6.5625 20.2344 6.8773 20.2344 7.26563V10.3125H18.8281V7.26563C18.8281 6.8773 18.5133 6.5625 18.125 6.5625Z" fill="#484C5B"/>
</g>
<defs>
<clipPath id="clip0_243_1534">
<rect width="24" height="24" fill="white" transform="translate(0.5)"/>
</clipPath>
</defs>
</svg>
