<svg width="30" height="30" viewBox="0 0 30 30" fill="none" xmlns="http://www.w3.org/2000/svg">
<path fill-rule="evenodd" clip-rule="evenodd" d="M17.535 3.8269C15.6472 3.39975 13.6819 3.45779 11.8225 3.99561C9.9691 4.53172 8.28114 5.52715 6.91512 6.88947L3.54167 10.0032V5.83333C3.54167 5.20051 3.02866 4.6875 2.39583 4.6875C1.76301 4.6875 1.25 5.20051 1.25 5.83333V12.7083C1.25 13.3412 1.76301 13.8542 2.39583 13.8542H9.27083C9.90366 13.8542 10.4167 13.3412 10.4167 12.7083C10.4167 12.0755 9.90366 11.5625 9.27083 11.5625H5.23094L8.49714 8.54755C8.50587 8.53935 8.51447 8.53101 8.52293 8.52254C9.61758 7.42734 10.9718 6.62729 12.4593 6.19703C13.9468 5.76678 15.519 5.72034 17.0293 6.06206C18.5396 6.40378 19.9387 7.12252 21.0961 8.15121C22.2534 9.1799 23.1314 10.485 23.6479 11.9448C23.859 12.5413 24.5138 12.8538 25.1104 12.6427C25.7069 12.4316 26.0194 11.7768 25.8083 11.1803C25.1626 9.35558 24.0652 7.72419 22.6185 6.43833C21.1718 5.15247 19.4229 4.25405 17.535 3.8269ZM26.4583 19.9968L23.0849 23.1106C21.7189 24.4729 20.0309 25.4683 18.1775 26.0044C16.3181 26.5422 14.3528 26.6003 12.465 26.1731C10.5771 25.746 8.82823 24.8476 7.38151 23.5617C5.93479 22.2758 4.83738 20.6445 4.19168 18.8198C3.98057 18.2232 4.29306 17.5684 4.88963 17.3573C5.48621 17.1462 6.14097 17.4587 6.35207 18.0553C6.86863 19.515 7.74656 20.8201 8.90394 21.8488C10.0613 22.8775 11.4604 23.5963 12.9707 23.938C14.481 24.2797 16.0532 24.2333 17.5407 23.803C19.0282 23.3727 20.3824 22.5727 21.4771 21.4775L21.4925 21.4624L21.5029 21.4525L24.7691 18.4375H20.7292C20.0963 18.4375 19.5833 17.9245 19.5833 17.2917C19.5833 16.6588 20.0963 16.1458 20.7292 16.1458H27.6042C28.237 16.1458 28.75 16.6588 28.75 17.2917V24.1667C28.75 24.7995 28.237 25.3125 27.6042 25.3125C26.9713 25.3125 26.4583 24.7995 26.4583 24.1667V19.9968Z" fill="#2B343E"/>
</svg>
