<svg width="25" height="24" viewBox="0 0 25 24" fill="none" xmlns="http://www.w3.org/2000/svg">
<g clip-path="url(#clip0_434_690)">
<path d="M16.0296 13.4113H5.44141V14.8231H16.0296V13.4113Z" fill="#484C5B"/>
<path d="M5.44141 16.2348H16.0296V17.6466H5.44141V16.2348Z" fill="#484C5B"/>
<path d="M16.0296 19.0583H5.44141V20.4701H16.0296V19.0583Z" fill="#484C5B"/>
<path fill-rule="evenodd" clip-rule="evenodd" d="M24.5 14.783C24.5 15.4373 24.0928 16.0346 23.4867 16.2693C23.1612 16.3953 22.9425 16.7146 22.9425 17.0639C22.9425 17.4131 23.1612 17.7324 23.4868 17.8585C24.0928 18.0933 24.5 18.6906 24.5 19.3449V22.3723C24.5 23.2696 23.77 23.9997 22.8726 23.9997H2.12739C1.23002 23.9997 0.5 23.2696 0.5 22.3723V19.3449C0.5 18.6906 0.9072 18.0933 1.51327 17.8585C1.83878 17.7325 2.05751 17.4131 2.05751 17.0639C2.05751 16.7146 1.83878 16.3953 1.51327 16.2692C0.9072 16.0346 0.5 15.4373 0.5 14.783V11.7555C0.5 10.8582 1.23002 10.1281 2.12739 10.1281H3.10852L12.7603 0.476293C13.3948 -0.158201 14.4273 -0.158107 15.0617 0.476293L17.2024 2.61705C17.6652 3.07973 17.7996 3.79003 17.5369 4.38453C17.396 4.70382 17.4672 5.08429 17.7141 5.33126C17.961 5.57818 18.3415 5.64938 18.6608 5.50829C19.2553 5.24571 19.9656 5.38015 20.4282 5.84279L22.569 7.98354C23.1536 8.5682 23.1991 9.49036 22.7064 10.1281H22.8726C23.77 10.1281 24.5 10.8582 24.5 11.7555V14.783ZM14.0635 1.4746C13.9794 1.39055 13.8426 1.39055 13.7585 1.47465L11.0781 4.15507L17.0511 10.1281H20.7293L21.5707 9.28674C21.6548 9.20274 21.6548 9.06589 21.5707 8.9818L19.43 6.84109C19.3764 6.78749 19.2965 6.77093 19.2312 6.79973C18.3826 7.17446 17.3718 6.98552 16.7158 6.32952C16.0598 5.67356 15.8708 4.66269 16.2455 3.81418C16.2744 3.74881 16.2578 3.66895 16.2042 3.61535L14.0635 1.4746ZM15.0546 10.1281L10.0798 5.15333L5.10499 10.1281H15.0546ZM1.91176 19.3449V22.3723C1.91176 22.4912 2.00852 22.5879 2.12739 22.5879H18.1471V11.5399H2.12739C2.00852 11.5399 1.91176 11.6366 1.91176 11.7555V14.783C1.91176 14.8587 1.95647 14.927 2.02301 14.9527C2.88805 15.2877 3.46922 16.1361 3.46922 17.0639C3.46922 17.9916 2.88809 18.84 2.02311 19.175C1.95652 19.2008 1.91176 19.269 1.91176 19.3449ZM22.9769 14.9528C23.0435 14.927 23.0882 14.8587 23.0882 14.783V11.7555C23.0882 11.6366 22.9915 11.5399 22.8726 11.5399H19.5588V22.5879H22.8726C22.9915 22.5879 23.0882 22.4912 23.0882 22.3723V19.3449C23.0882 19.2691 23.0435 19.2008 22.9769 19.175C22.1119 18.8401 21.5307 17.9917 21.5307 17.0639C21.5307 16.1362 22.112 15.2878 22.9769 14.9528Z" fill="#484C5B"/>
</g>
<defs>
<clipPath id="clip0_434_690">
<rect width="24" height="24" fill="white" transform="translate(0.5)"/>
</clipPath>
</defs>
</svg>
