<svg width="25" height="24" viewBox="0 0 25 24" fill="none" xmlns="http://www.w3.org/2000/svg">
<path fill-rule="evenodd" clip-rule="evenodd" d="M21.3889 22C22.0022 22 22.5 21.5022 22.5 20.8889V16.4444C22.5 15.8311 22.0022 15.3333 21.3889 15.3333H14.7222C14.1089 15.3333 13.6111 15.8311 13.6111 16.4444V20.8889C13.6111 21.5022 14.1089 22 14.7222 22H21.3889ZM11.3889 12C11.3889 11.3867 10.8911 10.8889 10.2778 10.8889H3.61111C2.99778 10.8889 2.5 11.3867 2.5 12V20.8889C2.5 21.5022 2.99778 22 3.61111 22H10.2778C10.8911 22 11.3889 21.5022 11.3889 20.8889V12ZM15.8333 17.5556V19.7778H20.2778V17.5556H15.8333ZM4.72222 13.1111V19.7778H9.16667V13.1111H4.72222ZM21.3889 13.1111C22.0022 13.1111 22.5 12.6133 22.5 12V3.11111C22.5 2.49778 22.0022 2 21.3889 2H14.7222C14.1089 2 13.6111 2.49778 13.6111 3.11111V12C13.6111 12.6133 14.1089 13.1111 14.7222 13.1111H21.3889ZM15.8333 4.22222V10.8889H20.2778V4.22222H15.8333ZM11.3889 3.11111C11.3889 2.49778 10.8911 2 10.2778 2H3.61111C2.99778 2 2.5 2.49778 2.5 3.11111V7.55556C2.5 8.16889 2.99778 8.66667 3.61111 8.66667H10.2778C10.8911 8.66667 11.3889 8.16889 11.3889 7.55556V3.11111ZM4.72222 4.22222V6.44444H9.16667V4.22222H4.72222Z" fill="#484C5B"/>
</svg>
