<svg width="40" height="40" viewBox="0 0 40 40" fill="none" xmlns="http://www.w3.org/2000/svg">
<mask id="mask0_9_11" style="mask-type:alpha" maskUnits="userSpaceOnUse" x="0" y="0" width="40" height="40">
<rect width="40" height="40" fill="#D9D9D9"/>
</mask>
<g mask="url(#mask0_9_11)">
</g>
<path fill-rule="evenodd" clip-rule="evenodd" d="M20 30.5C20 30.5 28.5909 24.7727 28.5909 18.0909C28.5909 15.8125 27.6858 13.6273 26.0747 12.0162C24.4636 10.4051 22.2785 9.49999 20 9.49999C17.7215 9.49999 15.5364 10.4051 13.9253 12.0162C12.3142 13.6273 11.4091 15.8125 11.4091 18.0909C11.4091 24.7727 20 30.5 20 30.5ZM23.8182 18.0909C23.8182 20.1996 22.1087 21.9091 20 21.9091C17.8913 21.9091 16.1818 20.1996 16.1818 18.0909C16.1818 15.9822 17.8913 14.2727 20 14.2727C22.1087 14.2727 23.8182 15.9822 23.8182 18.0909Z" fill="#494E53"/>
</svg>
