<svg width="150" height="50" viewBox="0 0 150 50" fill="none" xmlns="http://www.w3.org/2000/svg">
<mask id="mask0_169_3378" style="mask-type:luminance" maskUnits="userSpaceOnUse" x="0" y="1" width="150" height="48">
<path d="M149.602 1.00708H0V48.9929H149.602V1.00708Z" fill="white"/>
</mask>
<g mask="url(#mask0_169_3378)">
<path d="M32.648 46.1112C29.9251 46.1538 27.536 46.1964 25.4404 46.2389C25.8007 46.0971 25.8542 45.9408 25.8542 45.9408C25.8542 45.9408 26.0143 45.7138 25.4404 45.4583C24.8664 45.2027 24.3058 44.5213 23.9588 44.5639C23.6251 44.6065 23.2914 44.7343 23.0779 44.7343C23.0779 44.7343 23.505 44.5213 23.7186 44.3084C23.7186 44.3084 22.6373 44.6633 22.0101 44.3794C22.0101 44.3794 22.4638 44.1665 22.8776 43.8826C22.8776 43.8826 22.8242 43.4851 22.3438 43.5845C21.8632 43.6696 21.5829 43.9252 21.1157 43.9536C20.6486 43.9819 20.4083 43.8968 20.4083 43.8968C20.4083 43.8968 21.009 43.5134 21.4495 43.3431C21.8099 43.2012 22.4105 43.1301 22.4105 43.1301C22.5173 43.0734 22.8776 42.0088 24.7329 38.829C25.0532 38.2895 25.6273 37.4237 26.0411 36.7849C26.4414 36.1602 26.7751 35.3937 26.7218 34.9111C26.6682 34.4001 26.1345 32.2565 25.1335 31.5184C24.1456 30.7804 23.6383 30.3686 23.6383 30.3686C23.6383 30.3686 24.4126 30.624 24.9732 31.0215C25.5338 31.419 25.9476 31.419 25.9476 31.419C25.9476 31.419 25.5738 30.6809 25.4404 30.3686C25.3069 30.0563 23.9721 29.3465 23.5317 29.2329C23.1046 29.1194 21.4227 30.1983 21.0757 30.7661C21.1292 30.5389 21.2226 30.3259 21.3293 30.1699C21.6898 29.673 22.7843 29.0058 22.7843 29.0058C22.7843 29.0058 20.6085 29.7013 19.8744 30.7234C19.8744 30.7234 20.8088 29.0626 22.4238 28.3813C23.3849 27.9696 24.346 28.0263 24.346 28.0263C23.8387 27.1462 22.197 25.0312 22.1836 25.0312C20.742 24.7188 17.8189 25.315 17.8189 25.315C18.3129 24.946 19.8611 24.6479 20.6887 24.5058C21.009 24.4492 21.2358 24.4208 21.2358 24.4208C21.2358 24.4208 21.2358 24.3355 21.2226 24.1794C21.169 23.5264 20.8088 20.6306 20.3282 19.2111C19.661 17.2236 18.9401 15.6763 18.9401 15.6763C18.9401 15.6763 19.8611 16.6558 20.7954 18.047C21.4227 18.9838 21.8232 20.6448 21.8232 20.6448C21.543 17.4225 19.207 13.7032 19.207 13.7032C20.4485 14.7252 21.5696 16.3011 22.3037 17.6354C22.1435 14.6969 21.356 12.1418 20.315 11.4036C20.6752 11.6449 21.5562 12.2552 22.0368 13.0502C22.0368 13.0502 22.9043 11.7868 23.3314 11.2758C23.9187 10.5802 24.5061 10.1402 24.5061 10.1402C24.5061 10.1402 24.4794 10.0692 24.426 9.95564C24.5194 9.85627 24.6127 9.74271 24.7196 9.62914C25.2935 9.06133 25.4137 8.73484 25.4137 8.73484C25.12 8.94777 24.5995 9.07553 24.5995 9.07553C24.5995 9.07553 25.1467 8.66387 25.4937 8.23801C25.8408 7.82634 26.0543 7.55662 26.0543 7.55662C25.9075 7.95411 25.8142 8.36576 25.8142 8.36576C26.081 8.22381 26.7751 7.91151 27.3224 7.0314C27.8696 6.13709 28.7239 4.91629 29.071 4.44784C29.4179 3.97939 29.8451 3.22705 29.8451 3.22705C29.8451 3.51095 29.8985 3.99359 29.8985 3.99359C30.0186 3.85164 30.5792 3.369 30.6458 3.3122C30.8462 3.18445 31.3265 3.12768 31.4068 3.07089C31.5402 2.95732 31.5535 2.70181 31.5535 2.70181C31.4601 2.82957 31.2331 2.85796 31.2331 2.85796C31.2999 2.73021 31.4735 2.73019 31.4335 2.4037C31.4068 2.21917 31.26 2.07721 31.26 2.07721C31.26 2.07721 31.34 2.74439 31.0998 2.75859L30.5257 2.82957C30.5257 2.82957 30.8729 2.68762 30.9529 2.51726C31.033 2.36112 30.9262 1.89268 30.8327 1.77911C30.7261 1.67975 30.3923 1.56618 30.4457 1.55199C30.499 1.53779 30.9529 1.38164 31.1264 1.35325C31.2999 1.32486 31.4335 1.19711 31.26 1.09773C31.0863 0.998366 30.459 1.01256 30.459 1.01256C30.1655 0.955781 29.7649 1.35325 29.5914 1.59457C29.4179 1.83589 29.498 2.23337 29.4179 2.70181C29.3379 3.18445 28.537 3.99359 28.537 3.99359C28.6704 3.69549 28.7371 3.22705 28.7371 3.22705C28.7371 3.22705 27.883 4.09296 26.9219 4.41945C25.961 4.74594 24.7062 5.99513 24.1189 6.67652C23.8387 7.00301 23.4382 7.24433 23.0244 7.45726C23.5718 7.72697 23.8252 8.55031 23.9321 8.91938C23.9588 9.01875 23.9721 9.08972 23.9855 9.10393C23.9855 9.10393 23.545 8.49352 23.0912 8.20961C22.7975 8.02508 22.5173 7.89731 22.2904 7.82633C22.1168 7.76956 21.9833 7.72697 21.9033 7.71277L19.9279 8.39415C19.8611 8.26639 19.7143 8.16703 19.7143 8.16703C19.7008 8.5503 19.4206 9.67174 18.86 10.2963C18.7533 10.4241 18.5931 10.5518 18.4463 10.6654C18.2461 10.7506 18.0592 10.4241 18.0993 10.3105C18.126 10.2396 18.4195 10.1828 18.4195 10.1828C18.4195 10.1828 18.2727 10.1118 18.1526 10.1118C17.9924 10.1118 17.8323 10.0976 17.8323 10.0976C17.8323 10.0976 18.0993 9.94145 18.2994 9.92725C18.4996 9.91305 18.7933 9.84209 18.7933 9.84209C18.7933 9.84209 18.5796 9.75692 18.3929 9.70014C18.1927 9.64334 17.8857 9.61496 17.8857 9.61496C17.8857 9.61496 17.8857 9.61496 18.0058 9.48719C18.126 9.35944 18.4463 9.14651 18.4463 9.14651L18.0858 7.98249C18.0858 7.98249 17.939 7.86893 17.7655 7.84053C17.592 7.81214 17.0581 7.59921 17.0581 7.59921L17.7923 7.6134L17.512 6.20807C17.512 6.20807 18.0325 6.30744 18.3395 6.23646C18.6332 6.17967 19.3406 5.71123 19.3406 5.71123L19.7676 6.76168C19.7676 6.76168 19.741 6.15128 19.7008 5.89576C19.661 5.64025 19.4339 4.68915 19.3271 4.49043C19.1402 4.17813 18.7399 3.99359 18.7399 3.99359C17.6321 3.51095 15.8836 3.66709 15.2562 4.83112C15.0694 5.186 14.9092 5.71123 15.1494 6.54875C15.3096 7.07399 15.4164 7.23013 15.4164 7.23013C15.4164 7.23013 15.0026 7.27271 14.9892 7.44307C14.976 7.62759 15.0694 8.15283 15.2962 8.40834C15.5231 8.66387 15.8435 8.90518 15.8435 8.90518C15.8435 8.90518 15.8435 8.90518 15.977 9.31686C16.017 9.43042 16.0705 9.57237 16.1373 9.71432C15.8969 9.99823 15.4964 10.4099 15.0961 10.637C14.4554 10.9919 13.5344 11.6023 13.481 11.6449C13.214 11.8152 13.0005 11.9714 12.8804 12.1133C13.254 11.9571 13.6812 11.8152 14.0415 11.6875C14.4554 11.5455 14.7757 11.4462 14.7757 11.4462C14.7757 11.4462 14.6556 11.5455 14.4554 11.7017C14.2151 11.8862 13.8681 12.1275 13.4276 12.3973C12.6668 12.8515 11.7458 13.7742 11.3053 14.3562C10.7047 15.208 10.1708 15.9604 10.1708 15.9604C10.1708 15.9604 10.3844 16.0596 10.6513 16.2157C10.4645 16.7979 10.0507 18.1037 9.82377 18.473C9.53013 18.9413 9.20977 19.5232 9.20977 19.5232L9.54348 19.4382C9.97059 19.4239 10.3443 19.7079 10.3443 19.7079C10.3443 19.7079 9.28987 20.233 8.66254 21.1417C8.0352 22.0501 8.02186 23.214 8.02186 23.214C7.86169 23.0437 7.4479 22.6321 7.23436 22.405C7.22101 22.4476 7.20765 22.4902 7.19431 22.5326C7.18096 22.5612 7.16762 22.5895 7.16762 22.618C7.26105 23.0437 7.42123 23.7394 7.56805 24.009C7.94177 24.6762 8.66254 25.173 8.66254 25.173C8.66254 25.173 7.15426 24.4632 6.72714 23.8529C6.72714 23.8529 6.95405 24.6195 7.32779 25.1306C7.26105 25.1163 7.19431 25.088 7.12757 25.0595C6.87398 24.9602 6.62037 24.7614 6.4068 24.5343C6.38011 24.9602 6.47355 25.173 6.67376 25.315C6.91401 25.4854 6.95405 25.6415 7.20765 25.67C7.46126 25.6983 7.35448 25.6983 7.68817 25.9113C8.02186 26.11 7.88838 25.7409 8.23542 25.8404C8.58245 25.9538 8.60915 25.7267 8.60915 25.7267C8.60915 25.7267 8.87609 25.9113 8.99623 25.7551C9.10301 25.5848 9.07631 25.3293 9.15639 24.8465C9.23649 24.3639 9.11635 24.3782 8.88944 24.0942C8.67588 23.8104 8.43563 23.4696 8.43563 23.4696C8.43563 23.4696 8.52906 22.987 8.9028 22.5469C9.27652 22.0926 9.93056 21.6668 10.3043 21.2834C10.7181 20.8719 10.7314 20.4886 10.9717 20.1195C11.2253 19.5518 11.1585 19.4098 11.4121 18.8704C11.4522 18.7711 12.1062 18.1323 12.0127 17.9193C11.7592 17.3939 11.4789 16.9255 11.2386 16.5707C11.3187 16.6275 11.3988 16.6985 11.4655 16.7552C11.9594 17.1952 12.4665 17.7489 12.4665 17.7489C12.4665 17.7489 12.8804 17.2379 13.2407 16.8405C13.2407 16.8405 13.9348 16.1874 15.1761 14.6685C15.1761 14.6685 14.5888 16.23 14.2819 16.9824C14.2819 16.9965 14.2685 17.0108 14.2685 17.0249C14.8024 16.6132 15.363 16.1164 15.363 16.1164C15.363 16.1164 14.0282 18.3877 13.7212 19.7221C13.6945 20.2046 13.9081 21.7094 13.7613 22.5895C13.8414 22.5469 13.9081 22.5186 13.9882 22.4902C14.976 22.1069 16.324 22.1352 16.324 22.1352C15.977 22.1921 15.5498 22.3339 15.1093 22.5186C14.2951 22.8593 13.4543 23.3704 13.1073 23.7961L13.0673 23.8245C12.867 24.1368 12.7068 24.4208 12.6268 24.6052C12.6268 24.6052 13.0806 24.2079 13.8681 23.9664L13.8548 23.9807C14.2685 23.8529 15.0694 23.6542 16.0438 23.5121C17.2315 23.3561 18.7533 23.64 19.2738 23.7535C19.3939 23.782 19.4607 23.7961 19.4607 23.7961C19.4206 23.7961 19.3939 23.7961 19.3539 23.7961C17.8323 23.6968 16.7644 23.7394 15.2429 24.2079C14.8024 24.3498 14.175 24.6336 13.6011 24.9176L13.5877 24.9033C13.5877 24.9033 13.1606 25.1163 12.7202 25.3576C12.52 25.457 12.3198 25.5706 12.173 25.67C12.0662 25.7409 11.9727 25.7977 11.906 25.8404C11.7058 25.9964 11.4655 26.8482 11.292 27.5295C10.6113 28.6083 9.81042 29.8433 9.81042 29.8433C9.81042 29.8433 8.79601 31.2771 8.5958 31.7171C8.5958 31.7171 8.1153 31.9301 7.36783 32.4269C7.36783 32.4269 7.86169 31.6605 8.55576 31.4049C8.55576 31.4049 7.91508 31.2204 7.60808 31.4049C7.60808 31.4049 7.76826 30.8796 8.43563 30.7377C8.43563 30.7377 7.94177 29.9711 7.32779 29.602C7.11423 29.4743 6.94071 29.2898 6.78054 29.0911C6.67376 28.6511 6.92736 28.58 7.07419 28.211C7.24769 27.7282 7.10087 27.4017 6.68711 27.2314C6.27333 27.0752 5.07206 27.3876 5.07206 27.3876C5.07206 27.3876 5.69939 26.9617 6.17989 26.9192C6.17989 26.9192 4.96527 26.8055 3.77735 26.479C2.78963 26.2094 2.00212 26.2377 1.26801 26.5358C0.654029 26.7771 1.01441 27.5012 1.36145 27.771C1.70848 28.0406 2.1623 28.2677 2.1623 28.2677C2.1623 28.2677 1.98877 27.7567 2.56273 27.5012C2.56273 27.5012 2.33581 28.0548 2.45594 28.4807L2.70955 28.6368C2.70955 28.6368 2.58942 27.9554 3.2034 27.6573C3.2034 27.6573 2.89642 28.3954 3.00319 28.8071L3.44367 28.9775C3.44367 28.9775 3.47035 27.9696 4.08435 27.7282C4.08435 27.7282 3.75065 28.6225 3.99092 29.0626C4.11104 29.2755 4.3246 29.3892 4.65829 29.4458C4.75171 29.5595 4.84514 29.6588 4.91188 29.7582C5.13879 30.1414 5.25892 31.6036 5.79282 32.654C6.32671 33.6904 7.23436 35.2518 8.18202 35.55C9.1297 35.8338 10.1841 35.2233 11.0384 34.4285L11.8259 33.6334C11.8259 33.6334 11.0784 33.3781 10.5712 32.725C10.5712 32.725 11.0784 32.8386 11.3854 32.938C11.6924 33.0514 12.4799 33.1225 12.4799 33.1225C12.4799 33.1225 11.3587 32.285 10.985 31.9585C10.7715 31.7739 10.5979 31.0642 10.4911 30.5106C11.2253 31.2487 12.3598 32.3702 12.8537 32.7107C13.8013 33.3638 14.2151 33.2927 14.2151 33.2927C14.2151 33.2927 16.017 31.0357 16.6176 30.5389C16.6176 30.5389 14.8825 30.8087 13.5477 30.8512C13.5477 30.8512 15.5231 30.1699 16.5376 29.673C16.5376 29.673 15.0961 29.4601 14.4287 29.6305C14.4287 29.6305 16.1639 29.1762 17.3785 28.58C18.5931 27.998 20.8755 27.1605 21.5829 27.1746C21.5829 27.1746 19.0602 27.8986 18.206 28.949C18.206 28.949 19.1136 28.7787 19.6208 28.8638C19.6208 28.8638 17.8857 30.1556 17.6588 30.4963C17.6588 30.4963 19.0469 32.0436 19.8344 32.8811C20.6219 33.7187 21.7964 33.9601 21.7964 33.9601C21.7964 33.9601 21.4762 33.5483 21.169 32.583C21.0489 32.2139 20.9956 31.8449 20.9823 31.5042C21.0624 31.8592 21.276 32.2565 21.5295 32.6967C21.8499 33.2218 23.1046 34.6273 23.2113 34.8259C23.9455 34.2298 24.4926 34.2298 24.4926 34.2298C24.159 34.4569 23.4249 35.2233 23.4249 35.2233C23.4249 35.2233 22.2102 36.7992 21.8232 37.7076C21.4361 38.6302 20.9556 40.5325 20.7154 41.0151C20.7154 41.0151 22.2904 38.5734 22.8242 37.6507C22.8242 37.6507 21.9433 39.8369 21.2493 41.2138C20.5952 42.5198 20.1949 43.2864 20.008 43.6271C19.8744 43.8685 19.7544 44.0955 19.5675 44.4646C19.554 44.4646 19.554 44.4787 19.5408 44.493C19.4474 44.6633 19.3539 44.848 19.2871 45.004C19.2605 45.0607 19.2337 45.1176 19.2205 45.1744C19.1938 45.2595 18.7933 46.0119 19.3406 46.2815C10.3844 46.4379 10.3443 46.4379 9.71699 46.4519C9.11634 47.2611 8.19537 47.7721 7.14093 47.7721C6.52693 47.7721 5.93964 47.5876 5.44579 47.2754C5.85956 47.4881 6.31337 47.6018 6.79389 47.6018C7.74156 47.6018 8.58245 47.1617 9.15639 46.4662C9.65025 45.8699 9.95725 45.0892 9.95725 44.2232C9.95725 43.0877 9.43669 42.0939 8.63585 41.4836C8.60915 41.4836 6.42015 41.3842 5.339 43.0877C5.339 43.0877 5.47249 41.7958 6.24664 41.0577C6.30004 41.0008 6.35343 40.9583 6.4068 40.9157C6.28668 40.9725 6.17989 41.0434 6.05977 41.1145C5.01867 41.7958 4.29789 43.0025 4.29789 45.004C4.29789 45.004 3.93752 43.9819 4.2712 42.6901C4.35129 42.378 4.47142 42.0513 4.64493 41.7249C4.0176 42.3354 3.61717 43.2295 3.61717 44.209C3.61717 45.4157 4.21781 46.4662 5.11209 47.0624L0 48.9929L32.648 46.1112Z" fill="#FB5D52"/>
<path d="M19.7289 7.45734C19.7289 7.45734 19.5148 7.59941 19.2073 7.69886C18.8864 7.81251 18.3916 7.89775 18.3916 7.89775C18.3916 7.89775 18.512 8.16768 18.8329 8.2245C19.0067 8.25291 19.5148 8.08243 19.5148 8.08243C19.3945 8.08243 19.234 7.99721 19.234 7.99721C19.4079 7.92616 19.7289 7.45734 19.7289 7.45734Z" fill="#FB5D52"/>
<path d="M46.8789 19.0601V3.45911H53.6007C54.6947 3.45911 55.6165 3.62996 56.3658 3.9717C57.1152 4.29857 57.6847 4.76661 58.0744 5.37578C58.479 5.97011 58.6814 6.67587 58.6814 7.49306C58.6814 8.28054 58.5091 8.94171 58.1643 9.47662C57.8196 10.0115 57.3625 10.4201 56.7931 10.7024C56.2385 10.9847 55.624 11.1556 54.9495 11.215L55.3093 10.9475C56.0436 10.9773 56.6881 11.1704 57.2426 11.527C57.7972 11.8836 58.2318 12.3517 58.5465 12.9311C58.8762 13.4957 59.041 14.1198 59.041 14.8032C59.041 15.6501 58.8388 16.3931 58.4341 17.0319C58.0295 17.6708 57.4375 18.1686 56.6581 18.5251C55.8788 18.8817 54.9346 19.0601 53.8256 19.0601H46.8789ZM50.251 16.341H53.2635C54.0128 16.341 54.5899 16.1775 54.9945 15.8507C55.4141 15.5089 55.624 15.0187 55.624 14.3798C55.624 13.7408 55.4066 13.2431 54.972 12.8866C54.5524 12.5299 53.968 12.3517 53.2185 12.3517H50.251V16.341ZM50.251 9.87777H53.0163C53.7356 9.87777 54.2827 9.71434 54.6572 9.38746C55.0469 9.06058 55.2418 8.59999 55.2418 8.00567C55.2418 7.41134 55.0469 6.95074 54.6572 6.62387C54.2827 6.28213 53.7282 6.11127 52.9937 6.11127H50.251V9.87777Z" fill="#FB5D52"/>
<path d="M68.4789 19.3276C66.9352 19.3276 65.5789 18.9857 64.4098 18.3024C63.2408 17.6188 62.3192 16.6754 61.6447 15.4719C60.9853 14.2536 60.6555 12.8494 60.6555 11.2596C60.6555 9.66983 60.9853 8.27315 61.6447 7.06966C62.3192 5.85129 63.2408 4.90039 64.4098 4.21691C65.5789 3.53346 66.9352 3.19171 68.4789 3.19171C70.0227 3.19171 71.3864 3.53346 72.5704 4.21691C73.7544 4.90039 74.6686 5.85129 75.313 7.06966C75.9725 8.27315 76.3023 9.66983 76.3023 11.2596C76.3023 12.8494 75.9725 14.2536 75.313 15.4719C74.6686 16.6754 73.7544 17.6188 72.5704 18.3024C71.3864 18.9857 70.0227 19.3276 68.4789 19.3276ZM68.4789 16.3187C69.3931 16.3187 70.1725 16.1108 70.8169 15.6948C71.4764 15.2787 71.986 14.6993 72.3456 13.9563C72.7053 13.1986 72.8852 12.2997 72.8852 11.2596C72.8852 10.2196 72.7053 9.32808 72.3456 8.58518C71.986 7.82743 71.4764 7.24795 70.8169 6.84679C70.1725 6.43077 69.3931 6.22275 68.4789 6.22275C67.5947 6.22275 66.8228 6.43077 66.1634 6.84679C65.5039 7.24795 64.9944 7.82743 64.6347 8.58518C64.275 9.32808 64.095 10.2196 64.095 11.2596C64.095 12.2997 64.275 13.1986 64.6347 13.9563C64.9944 14.6993 65.5039 15.2787 66.1634 15.6948C66.8228 16.1108 67.5947 16.3187 68.4789 16.3187Z" fill="#FB5D52"/>
<path d="M85.8459 19.3276C84.3021 19.3276 82.9458 18.9857 81.7769 18.3024C80.6078 17.6188 79.686 16.6754 79.0115 15.4719C78.3522 14.2536 78.0225 12.8494 78.0225 11.2596C78.0225 9.66983 78.3522 8.27315 79.0115 7.06966C79.686 5.85129 80.6078 4.90039 81.7769 4.21691C82.9458 3.53346 84.3021 3.19171 85.8459 3.19171C87.3895 3.19171 88.7534 3.53346 89.9373 4.21691C91.1214 4.90039 92.0357 5.85129 92.6801 7.06966C93.3394 8.27315 93.6692 9.66983 93.6692 11.2596C93.6692 12.8494 93.3394 14.2536 92.6801 15.4719C92.0357 16.6754 91.1214 17.6188 89.9373 18.3024C88.7534 18.9857 87.3895 19.3276 85.8459 19.3276ZM85.8459 16.3187C86.76 16.3187 87.5394 16.1108 88.1839 15.6948C88.8433 15.2787 89.3529 14.6993 89.7126 13.9563C90.0723 13.1986 90.2521 12.2997 90.2521 11.2596C90.2521 10.2196 90.0723 9.32808 89.7126 8.58518C89.3529 7.82743 88.8433 7.24795 88.1839 6.84679C87.5394 6.43077 86.76 6.22275 85.8459 6.22275C84.9615 6.22275 84.1898 6.43077 83.5303 6.84679C82.8709 7.24795 82.3613 7.82743 82.0016 8.58518C81.6419 9.32808 81.4621 10.2196 81.4621 11.2596C81.4621 12.2997 81.6419 13.1986 82.0016 13.9563C82.3613 14.6993 82.8709 15.2787 83.5303 15.6948C84.1898 16.1108 84.9615 16.3187 85.8459 16.3187Z" fill="#FB5D52"/>
<path d="M95.884 19.0601V3.45911H99.2562V9.36518L104.696 3.45911H108.833L103.055 9.63262L109.035 19.0601H104.899L100.65 12.2179L99.2562 13.7112V19.0601H95.884Z" fill="#FB5D52"/>
<path d="M115.491 19.0601V3.45911H119.538L124.124 12.8419L128.665 3.45911H132.689V19.0601H129.317V9.09772L125.45 16.8758H122.752L118.863 9.09772V19.0601H115.491Z" fill="#FB5D52"/>
<path d="M139.542 19.0601V13.7112L134.168 3.45911H137.991L141.564 10.9475H140.936L144.487 3.45911H148.263L142.913 13.7112V19.0601H139.542Z" fill="#FB5D52"/>
<path d="M44.959 43.6357V23.1596H52.9847C54.6765 23.1596 56.0729 23.4424 57.1745 24.0079C58.2959 24.5734 59.1317 25.3534 59.6827 26.348C60.2333 27.3231 60.5089 28.425 60.5089 29.6536C60.5089 30.804 60.2432 31.8668 59.7121 32.8419C59.181 33.817 58.3647 34.6068 57.2632 35.2113C56.1615 35.8159 54.7354 36.1181 52.9847 36.1181H49.3848V43.6357H44.959ZM49.3848 32.6079H52.6897C53.8502 32.6079 54.6861 32.3446 55.1977 31.8181C55.7287 31.272 55.9943 30.5506 55.9943 29.6536C55.9943 28.7369 55.7287 28.0251 55.1977 27.5182C54.6861 26.9915 53.8502 26.7282 52.6897 26.7282H49.3848V32.6079Z" fill="#FB5D52"/>
<path d="M63.0657 43.6357V23.1596H67.4916V40.2426H76.4026V43.6357H63.0657Z" fill="#FB5D52"/>
<path d="M79 45.4761L86.524 25H91.599L99.1233 45.4761H94.4317L89.0321 29.9436L83.6325 45.4761H79ZM82.2751 41.0007L83.4555 37.6074H94.2842L95.435 41.0007H82.2751Z" fill="#FB5D52"/>
<path d="M103.411 43.6357V36.6155L96.3589 23.1596H101.375L106.066 32.9881H105.24L109.902 23.1596H114.859L107.837 36.6155V43.6357H103.411Z" fill="#FB5D52"/>
<path d="M116.895 43.6357V23.1596H130.733V26.699H121.321V31.5256H129.849V34.9188H121.321V40.0964H130.733V43.6357H116.895Z" fill="#FB5D52"/>
<path d="M133.936 43.6357V23.1596H141.961C143.633 23.1596 145.02 23.452 146.122 24.037C147.243 24.6027 148.069 25.3632 148.599 26.3188C149.151 27.2743 149.426 28.3371 149.426 29.5071C149.426 30.5993 149.161 31.6231 148.629 32.5787C148.118 33.5342 147.311 34.3045 146.21 34.8895C145.107 35.4746 143.682 35.767 141.932 35.767H138.361V43.6357H133.936ZM144.587 43.6357L140.426 34.6849H145.176L149.602 43.6357H144.587ZM138.361 32.6079H141.695C142.798 32.6079 143.604 32.3446 144.116 31.8181C144.647 31.2915 144.912 30.5798 144.912 29.6827C144.912 28.8051 144.647 28.1129 144.116 27.6058C143.604 27.0794 142.798 26.8161 141.695 26.8161H138.361V32.6079Z" fill="#FB5D52"/>
</g>
</svg>
