<svg width="50" height="50" viewBox="0 0 50 50" fill="none" xmlns="http://www.w3.org/2000/svg">
<mask id="mask0_1_7" style="mask-type:alpha" maskUnits="userSpaceOnUse" x="0" y="0" width="50" height="50">
<rect width="50" height="50" fill="#D9D9D9"/>
</mask>
<g mask="url(#mask0_1_7)">
</g>
<path fill-rule="evenodd" clip-rule="evenodd" d="M36 19.0177V31C36 32.6523 34.6523 34 33 34H17C15.3477 34 14 32.6523 14 31V19C14 17.3477 15.3477 16 17 16H33C34.6443 16 35.987 17.3347 35.9999 18.9761C36.0002 18.99 36.0003 19.0038 36 19.0177ZM16.1066 18.5539C16.272 18.2269 16.612 18 17 18H33C33.388 18 33.7281 18.227 33.8935 18.554L25.0001 24.7794L16.1066 18.5539ZM16 20.9206V31C16 31.5477 16.4523 32 17 32H33C33.5477 32 34 31.5477 34 31V20.9207L25.5735 26.8193C25.2292 27.0603 24.7709 27.0603 24.4266 26.8193L16 20.9206Z" fill="#494E53"/>
</svg>
