<svg width="63" height="80" viewBox="0 0 63 80" fill="none" xmlns="http://www.w3.org/2000/svg">
<mask id="mask0_5_4" style="mask-type:alpha" maskUnits="userSpaceOnUse" x="0" y="0" width="63" height="80">
<rect width="63" height="80" fill="#D9D9D9"/>
</mask>
<g mask="url(#mask0_5_4)">
<path d="M5.34478 22.1625C9.76284 17.4094 16.4482 15 25.2119 15H28.3609V23.8094L25.8291 24.3125C21.5149 25.1688 18.5139 26.8531 16.9079 29.325C16.07 30.6567 15.5947 32.1814 15.5287 33.75H25.2119C26.047 33.75 26.848 34.0792 27.4386 34.6653C28.0291 35.2513 28.3609 36.0462 28.3609 36.875V58.75C28.3609 62.1969 25.5362 65 22.0629 65H3.16881C2.33364 65 1.53268 64.6708 0.942124 64.0847C0.35157 63.4987 0.0198004 62.7038 0.0198004 61.875V46.25L0.0292475 37.1281C0.00090645 36.7813 -0.597405 28.5625 5.34478 22.1625ZM56.702 65H37.8079C36.9727 65 36.1718 64.6708 35.5812 64.0847C34.9907 63.4987 34.6589 62.7038 34.6589 61.875V46.25L34.6684 37.1281C34.64 36.7813 34.0417 28.5625 39.9839 22.1625C44.4019 17.4094 51.0873 15 59.851 15H63V23.8094L60.4682 24.3125C56.1541 25.1688 53.1531 26.8531 51.5471 29.325C50.7091 30.6567 50.2338 32.1814 50.1678 33.75H59.851C60.6862 33.75 61.4871 34.0792 62.0777 34.6653C62.6682 35.2513 63 36.0462 63 36.875V58.75C63 62.1969 60.1753 65 56.702 65Z" fill="#EFF5F2"/>
</g>
</svg>
