<svg width="17" height="17" viewBox="0 0 17 17" fill="none" xmlns="http://www.w3.org/2000/svg">
<path d="M7.92635 0.910936C8.10691 0.363021 8.89309 0.363021 9.07365 0.910937L10.6667 5.74517C10.7475 5.9902 10.9791 6.15611 11.2404 6.15611L16.3957 6.15611C16.98 6.15611 17.2229 6.89332 16.7502 7.23195L12.5795 10.2197C12.3681 10.3711 12.2796 10.6395 12.3604 10.8846L13.9534 15.7188C14.134 16.2667 13.498 16.7224 13.0253 16.3837L8.85454 13.396C8.64313 13.2446 8.35687 13.2446 8.14546 13.396L3.97474 16.3837C3.50203 16.7224 2.866 16.2667 3.04656 15.7188L4.63963 10.8846C4.72038 10.6395 4.63192 10.3711 4.42052 10.2197L0.249792 7.23195C-0.222921 6.89332 0.0200214 6.15611 0.604327 6.15611L5.75963 6.15611C6.02094 6.15611 6.25253 5.9902 6.33328 5.74517L7.92635 0.910936Z" fill="#F9B53D"/>
</svg>
