<svg width="50" height="50" viewBox="0 0 50 50" fill="none" xmlns="http://www.w3.org/2000/svg">
<mask id="mask0_1_7" style="mask-type:alpha" maskUnits="userSpaceOnUse" x="0" y="0" width="50" height="50">
<rect width="50" height="50" fill="#D9D9D9"/>
</mask>
<g mask="url(#mask0_1_7)">
</g>
<path fill-rule="evenodd" clip-rule="evenodd" d="M25 16.2C23.1591 16.2 21.6667 17.6775 21.6667 19.5C21.6667 21.3225 23.1591 22.8 25 22.8C26.8409 22.8 28.3333 21.3225 28.3333 19.5C28.3333 17.6775 26.841 16.2 25 16.2ZM19.4444 19.5C19.4444 16.4624 21.9318 14 25 14C28.0682 14 30.5556 16.4624 30.5556 19.5C30.5556 22.5376 28.0682 25 25 25C21.9318 25 19.4444 22.5376 19.4444 19.5ZM16.6272 28.8109C17.6691 27.7795 19.0821 27.2 20.5556 27.2H29.4444C30.9179 27.2 32.3309 27.7795 33.3728 28.8109C34.4147 29.8424 35 31.2413 35 32.7V34.9C35 35.5075 34.5025 36 33.8889 36C33.2752 36 32.7778 35.5075 32.7778 34.9V32.7C32.7778 31.8248 32.4266 30.9854 31.8015 30.3665C31.1763 29.7477 30.3285 29.4 29.4444 29.4H20.5556C19.6715 29.4 18.8237 29.7477 18.1985 30.3665C17.5734 30.9854 17.2222 31.8248 17.2222 32.7V34.9C17.2222 35.5075 16.7248 36 16.1111 36C15.4975 36 15 35.5075 15 34.9V32.7C15 31.2413 15.5853 29.8424 16.6272 28.8109Z" fill="#494E53"/>
</svg>
