<svg width="16" height="17" viewBox="0 0 16 17" fill="none" xmlns="http://www.w3.org/2000/svg">
<g clip-path="url(#clip0_166_2379)">
<mask id="mask0_166_2379" style="mask-type:luminance" maskUnits="userSpaceOnUse" x="0" y="0" width="16" height="17">
<path d="M0 0.5H16V16.5H0V0.5Z" fill="white"/>
</mask>
<g mask="url(#mask0_166_2379)">
<path fill-rule="evenodd" clip-rule="evenodd" d="M4.19321 3.5677L4.23468 3.57201C4.40912 3.59013 4.58294 3.60822 4.75584 3.60645C5.53341 3.5985 6.27778 3.29017 6.83324 2.74597C6.95669 2.62496 7.06685 2.48926 7.17742 2.3531L7.20366 2.32073C7.35454 2.1351 7.44911 2.019 7.52351 1.93351C7.58655 1.86107 7.61071 1.8394 7.61271 1.83758C7.838 1.6538 8.16146 1.6538 8.38675 1.83757C8.38875 1.83935 8.41283 1.86101 8.47595 1.93351C8.55035 2.019 8.64492 2.1351 8.7958 2.32073L8.82213 2.35311C8.93261 2.48926 9.04278 2.62497 9.16622 2.74597C9.72168 3.29017 10.466 3.5985 11.2436 3.60645C11.4165 3.60822 11.5903 3.59014 11.7647 3.57201L11.8063 3.5677C12.0442 3.54312 12.1931 3.5279 12.3062 3.52005C12.402 3.5134 12.4344 3.51515 12.4372 3.51532C12.7264 3.54464 12.9551 3.77337 12.9845 4.0626C12.9846 4.06522 12.9864 4.09756 12.9797 4.19354C12.9718 4.30659 12.9566 4.45556 12.9321 4.69351L12.9277 4.73493C12.9097 4.90937 12.8916 5.08324 12.8933 5.25614C12.9013 6.03371 13.2096 6.77808 13.7538 7.3335C13.8748 7.45702 14.0105 7.56711 14.1466 7.67767L14.179 7.704C14.3647 7.85488 14.4808 7.94945 14.5663 8.02377C14.6385 8.08665 14.6602 8.11081 14.6621 8.11297C14.846 8.33826 14.846 8.6618 14.6621 8.88708C14.6602 8.88925 14.6385 8.91341 14.5663 8.97629C14.4808 9.05061 14.3647 9.14518 14.179 9.29606L14.1467 9.32238C14.0106 9.43295 13.8748 9.54303 13.7538 9.66656C13.2096 10.2219 12.9013 10.9664 12.8933 11.7439C12.8916 11.9168 12.9097 12.0907 12.9277 12.2651L12.9321 12.3066C12.9566 12.5445 12.9718 12.6935 12.9797 12.8065C12.9864 12.9026 12.9846 12.9349 12.9845 12.9375C12.9551 13.2267 12.7264 13.4554 12.4372 13.4847C12.4346 13.4849 12.4024 13.4866 12.3062 13.48C12.1931 13.4722 12.0442 13.457 11.8063 13.4324L11.7647 13.4281C11.5903 13.4099 11.4165 13.3918 11.2436 13.3936C10.466 13.4016 9.72168 13.7098 9.16622 14.2541C9.04278 14.3751 8.93261 14.5108 8.82213 14.6469L8.7958 14.6793C8.64492 14.8649 8.55035 14.9811 8.47595 15.0665C8.41315 15.1388 8.38891 15.1605 8.38675 15.1625C8.16146 15.3462 7.838 15.3462 7.61271 15.1625C7.61055 15.1605 7.58631 15.1388 7.52351 15.0665C7.44911 14.9811 7.35454 14.8649 7.20366 14.6793L7.17742 14.647C7.06685 14.5108 6.95677 14.3751 6.83324 14.2541C6.27778 13.7098 5.5334 13.4016 4.75584 13.3936C4.58295 13.3918 4.40912 13.4099 4.23469 13.4281L4.19321 13.4324C3.95526 13.457 3.80629 13.4722 3.69324 13.48C3.59723 13.4866 3.5649 13.4849 3.5623 13.4847C3.27307 13.4554 3.04435 13.2267 3.01501 12.9374C3.01485 12.9347 3.0131 12.9023 3.01975 12.8065C3.0276 12.6935 3.04283 12.5445 3.0674 12.3066L3.0717 12.2651C3.08984 12.0907 3.10791 11.9168 3.10615 11.7439C3.0982 10.9664 2.78987 10.2219 2.24566 9.66656C2.12467 9.54303 1.98897 9.43295 1.85282 9.32238L1.82043 9.29606C1.6348 9.14518 1.51869 9.05061 1.43321 8.97629C1.36072 8.91317 1.33906 8.889 1.33727 8.887C1.1535 8.6618 1.1535 8.33826 1.33727 8.11305C1.33906 8.11105 1.36071 8.08689 1.43321 8.02377C1.51869 7.94945 1.6348 7.85488 1.82043 7.704L1.8528 7.67767C1.98897 7.56719 2.12466 7.45702 2.24566 7.3335C2.78987 6.77808 3.0982 6.03371 3.10615 5.25614C3.10791 5.08324 3.08984 4.90941 3.0717 4.73498L3.0674 4.69351C3.04283 4.45556 3.0276 4.30659 3.01975 4.19354C3.0131 4.09774 3.01485 4.06535 3.01501 4.06262C3.04435 3.77337 3.27308 3.54464 3.56232 3.51532C3.56505 3.51515 3.59745 3.5134 3.69324 3.52005C3.80629 3.5279 3.95526 3.54312 4.19321 3.5677ZM1.33727 8.887C1.33723 8.887 1.33729 8.887 1.33727 8.887V8.887ZM3.5623 13.4847C3.5622 13.4847 3.56231 13.4847 3.5623 13.4847V13.4847ZM8.38675 15.1625C8.38659 15.1626 8.38691 15.1623 8.38675 15.1625V15.1625ZM12.4372 3.51532C12.4372 3.51531 12.4372 3.51532 12.4372 3.51532V3.51532ZM6.27242 1.56383C6.56393 1.20519 6.70972 1.02584 6.85236 0.909134C7.51991 0.363215 8.47955 0.363215 9.1471 0.909134C9.28975 1.02584 9.43551 1.20516 9.72704 1.5638C9.86425 1.73256 9.93281 1.81697 10.0061 1.88878C10.3403 2.21618 10.788 2.40168 11.2559 2.40646C11.3585 2.40751 11.4666 2.39634 11.683 2.374C12.1427 2.32652 12.3726 2.30278 12.556 2.32116C13.414 2.40712 14.0927 3.08574 14.1786 3.94375C14.197 4.12718 14.1732 4.35705 14.1258 4.81678C14.1034 5.03311 14.0923 5.14127 14.0933 5.24388C14.0981 5.71168 14.2836 6.15951 14.611 6.49367C14.6828 6.56696 14.7672 6.63554 14.9359 6.77269C15.2946 7.06418 15.4739 7.20997 15.5907 7.3527C16.1365 8.02017 16.1365 8.97989 15.5907 9.64736C15.4739 9.79008 15.2946 9.93585 14.9359 10.2273C14.7672 10.3644 14.6828 10.4331 14.611 10.5064C14.2836 10.8405 14.0981 11.2884 14.0933 11.7562C14.0923 11.8588 14.1034 11.967 14.1258 12.1833C14.1732 12.643 14.197 12.8729 14.1786 13.0563C14.0927 13.9143 13.414 14.5929 12.556 14.6789C12.3726 14.6973 12.1427 14.6736 11.683 14.626C11.4666 14.6037 11.3585 14.5925 11.2559 14.5936C10.788 14.5984 10.3403 14.7839 10.0061 15.1113C9.93281 15.1831 9.86425 15.2674 9.72704 15.4362C9.43551 15.7948 9.28975 15.9742 9.1471 16.0909C8.47955 16.6369 7.51991 16.6369 6.85236 16.0909C6.70972 15.9742 6.56395 15.7949 6.27243 15.4362C6.13532 15.2676 6.06664 15.1831 5.99337 15.1113C5.65921 14.7839 5.21137 14.5984 4.74358 14.5936C4.64097 14.5925 4.53281 14.6037 4.31647 14.626C3.85675 14.6736 3.62688 14.6973 3.44345 14.6789C2.58544 14.5929 1.90682 13.9143 1.82086 13.0563C1.80249 12.8729 1.82622 12.643 1.8737 12.1833C1.89603 11.967 1.9072 11.8588 1.90615 11.7562C1.90138 11.2884 1.71588 10.8405 1.38848 10.5064C1.31667 10.4331 1.23229 10.3645 1.06353 10.2274C0.704895 9.93593 0.525544 9.79008 0.408835 9.64736C-0.137092 8.97989 -0.137092 8.02017 0.408835 7.3527C0.525544 7.20997 0.704863 7.06421 1.0635 6.77273C1.23227 6.63556 1.31667 6.56696 1.38848 6.49367C1.71588 6.15951 1.90138 5.71168 1.90615 5.24388C1.9072 5.14128 1.89603 5.03311 1.8737 4.81679C1.82622 4.35706 1.80249 4.12718 1.82086 3.94375C1.90682 3.08574 2.58544 2.40712 3.44345 2.32116C3.62688 2.30278 3.85674 2.32652 4.31646 2.374C4.53278 2.39634 4.64097 2.40751 4.74358 2.40646C5.21138 2.40168 5.65921 2.21618 5.99337 1.88878C6.06666 1.81697 6.13524 1.73258 6.27242 1.56383ZM10.8242 7.32422C11.0585 7.08989 11.0585 6.71 10.8242 6.47568C10.5899 6.24136 10.21 6.24136 9.97569 6.47568L7.19982 9.2515L6.02403 8.07577C5.78971 7.84144 5.40979 7.84144 5.17547 8.07577C4.94115 8.3101 4.94115 8.68996 5.17547 8.92429L6.77556 10.5244C7.00989 10.7587 7.38975 10.7587 7.62407 10.5244L10.8242 7.32422Z" fill="#64CE23"/>
</g>
</g>
<defs>
<clipPath id="clip0_166_2379">
<rect width="16" height="16" fill="white" transform="translate(0 0.5)"/>
</clipPath>
</defs>
</svg>
